<?xml version="1.0"?>
<svg xmlns="http://www.w3.org/2000/svg" xmlns:xlink="http://www.w3.org/1999/xlink" xmlns:svgjs="http://svgjs.com/svgjs" version="1.1" width="512" height="512" x="0" y="0" viewBox="0 0 512 512" style="enable-background:new 0 0 512 512" xml:space="preserve" class=""><g><path xmlns="http://www.w3.org/2000/svg" d="M496,376V40a24.028,24.028,0,0,0-24-24H40A24.028,24.028,0,0,0,16,40V376a24.028,24.028,0,0,0,24,24H198.556l-13.333,80H152a8,8,0,0,0,0,16H360a8,8,0,0,0,0-16H326.777l-13.333-80h68.613l69.589,69.589a24,24,0,0,0,33.941,0h0a24.028,24.028,0,0,0,0-33.941L449.939,400H472A24.028,24.028,0,0,0,496,376ZM321.541,316.856l11.313-11.314,33.94,33.94L355.48,350.8Zm-13.765-8.862-21.852-5.463a23.893,23.893,0,0,1-17.565-17.886l-9.686-41.972,41.972,9.686a23.893,23.893,0,0,1,17.886,17.565l5.463,21.852Zm32.3-17.855-6.024-24.1a39.825,39.825,0,0,0-29.812-29.274L249.8,224.205a8,8,0,0,0-9.594,9.594l12.564,54.443A40,40,0,0,0,260.315,304H32V96H480V304H353.939ZM40,32H472a8.009,8.009,0,0,1,8,8V80H32V40A8.009,8.009,0,0,1,40,32ZM310.556,480H201.444l13.333-80h82.446ZM40,384a8.009,8.009,0,0,1-8-8V320H289.828l16.306,4.076L366.057,384Zm434.273,74.275a8,8,0,0,1-11.314,0L366.794,362.11,378.108,350.8l96.165,96.165A8.01,8.01,0,0,1,474.273,458.275ZM369.939,320H480v56a8.009,8.009,0,0,1-8,8H433.939Z" fill="#ffffff" data-original="#000000" style="" class=""/><path xmlns="http://www.w3.org/2000/svg" d="M272,336H240a8,8,0,0,0,0,16h32a8,8,0,0,0,0-16Z" fill="#ffffff" data-original="#000000" style="" class=""/><circle xmlns="http://www.w3.org/2000/svg" cx="56" cy="56" r="8" fill="#ffffff" data-original="#000000" style="" class=""/><circle xmlns="http://www.w3.org/2000/svg" cx="88" cy="56" r="8" fill="#ffffff" data-original="#000000" style="" class=""/><circle xmlns="http://www.w3.org/2000/svg" cx="120" cy="56" r="8" fill="#ffffff" data-original="#000000" style="" class=""/><path xmlns="http://www.w3.org/2000/svg" d="M104,128h16a8,8,0,0,0,0-16H104a8,8,0,0,0,0,16Z" fill="#ffffff" data-original="#000000" style="" class=""/><path xmlns="http://www.w3.org/2000/svg" d="M152,128h16a8,8,0,0,0,0-16H152a8,8,0,0,0,0,16Z" fill="#ffffff" data-original="#000000" style="" class=""/><path xmlns="http://www.w3.org/2000/svg" d="M72,272H64v-8a8,8,0,0,0-16,0v16a8,8,0,0,0,8,8H72a8,8,0,0,0,0-16Z" fill="#ffffff" data-original="#000000" style="" class=""/><path xmlns="http://www.w3.org/2000/svg" d="M120,272H104a8,8,0,0,0,0,16h16a8,8,0,0,0,0-16Z" fill="#ffffff" data-original="#000000" style="" class=""/><path xmlns="http://www.w3.org/2000/svg" d="M168,272H152a8,8,0,0,0,0,16h16a8,8,0,0,0,0-16Z" fill="#ffffff" data-original="#000000" style="" class=""/><path xmlns="http://www.w3.org/2000/svg" d="M216,112H200a8,8,0,0,0,0,16h8v8a8,8,0,0,0,16,0V120A8,8,0,0,0,216,112Z" fill="#ffffff" data-original="#000000" style="" class=""/><path xmlns="http://www.w3.org/2000/svg" d="M216,160a8,8,0,0,0-8,8v16a8,8,0,0,0,16,0V168A8,8,0,0,0,216,160Z" fill="#ffffff" data-original="#000000" style="" class=""/><path xmlns="http://www.w3.org/2000/svg" d="M216,208a8,8,0,0,0-8,8v16a8,8,0,0,0,16,0V216A8,8,0,0,0,216,208Z" fill="#ffffff" data-original="#000000" style="" class=""/><path xmlns="http://www.w3.org/2000/svg" d="M216,256a8,8,0,0,0-8,8v8h-8a8,8,0,0,0,0,16h16a8,8,0,0,0,8-8V264A8,8,0,0,0,216,256Z" fill="#ffffff" data-original="#000000" style="" class=""/><path xmlns="http://www.w3.org/2000/svg" d="M56,144a8,8,0,0,0,8-8v-8h8a8,8,0,0,0,0-16H56a8,8,0,0,0-8,8v16A8,8,0,0,0,56,144Z" fill="#ffffff" data-original="#000000" style="" class=""/><path xmlns="http://www.w3.org/2000/svg" d="M56,192a8,8,0,0,0,8-8V168a8,8,0,0,0-16,0v16A8,8,0,0,0,56,192Z" fill="#ffffff" data-original="#000000" style="" class=""/><path xmlns="http://www.w3.org/2000/svg" d="M56,240a8,8,0,0,0,8-8V216a8,8,0,0,0-16,0v16A8,8,0,0,0,56,240Z" fill="#ffffff" data-original="#000000" style="" class=""/><path xmlns="http://www.w3.org/2000/svg" d="M296,192H248a8,8,0,0,0,0,16h48a8,8,0,0,0,0-16Z" fill="#ffffff" data-original="#000000" style="" class=""/><path xmlns="http://www.w3.org/2000/svg" d="M456,192H328a8,8,0,0,0,0,16H456a8,8,0,0,0,0-16Z" fill="#ffffff" data-original="#000000" style="" class=""/><path xmlns="http://www.w3.org/2000/svg" d="M456,224H344a8,8,0,0,0,0,16H456a8,8,0,0,0,0-16Z" fill="#ffffff" data-original="#000000" style="" class=""/><path xmlns="http://www.w3.org/2000/svg" d="M456,112H248a8,8,0,0,0-8,8v48a8,8,0,0,0,8,8H456a8,8,0,0,0,8-8V120A8,8,0,0,0,456,112Zm-8,48H256V128H448Z" fill="#ffffff" data-original="#000000" style="" class=""/><path xmlns="http://www.w3.org/2000/svg" d="M192,152a8,8,0,0,0-8-8H88a8,8,0,0,0-8,8v96a8,8,0,0,0,8,8h96a8,8,0,0,0,8-8Zm-16,88H96V160h80Z" fill="#ffffff" data-original="#000000" style="" class=""/></g></svg>
